# xmcd CD database file
#
# Track frame offsets:
#	150
#	14890
#	28822
#	45590
#	74208
#	89555
#	125030
#	140278
#	169700
#	188808
#	206863
#	222681
#	246774
#	269071
#	298219
#
# Disc length: 4231 seconds
#
# Revision: 0
# Processed by: cddbd v1.4PL0 Copyright (c) Steve Scherf et al.
# Submitted via: CDex 1.50
#
DISCID=0710850f
DTITLE=Little Milton - Wainting For Little Milton and Blues 'n' Soul
DYEAR=1992
DGENRE=Blues
TTITLE0=It's Amazing
TTITLE1=Who Can Handle Me Is You
TTITLE2=Woman, You Don't Have To Be So Cold
TTITLE3=The Thrill Is Gone
TTITLE4=Monologue 1
TTITLE5=That's How Strong My Love Is
TTITLE6=What It Is
TTITLE7=Little Bluebird
TTITLE8=Woman Across The River
TTITLE9=Behind Closed Door
TTITLE10=Sweet Woman Of Mine
TTITLE11=Worried Dream
TTITLE12=How Could You Do It To Me
TTITLE13=You're No Good
TTITLE14=Tain't Nobody's Biz-Ness If I Do
EXTD=YEAR: 1992
EXTT0=
EXTT1=
EXTT2=
EXTT3=
EXTT4=
EXTT5=
EXTT6=
EXTT7=
EXTT8=
EXTT9=
EXTT10=
EXTT11=
EXTT12=
EXTT13=
EXTT14=
PLAYORDER=
